<?xml version="1.0" standalone="no"?>
<!DOCTYPE svg PUBLIC "-//W3C//DTD SVG 20010904//EN"
 "http://www.w3.org/TR/2001/REC-SVG-20010904/DTD/svg10.dtd">
<svg version="1.0" xmlns="http://www.w3.org/2000/svg"
 width="500.000000pt" height="500.000000pt" viewBox="0 0 500.000000 500.000000"
 preserveAspectRatio="xMidYMid meet">

<g transform="translate(0.000000,500.000000) scale(0.100000,-0.100000)"
fill="#000000" stroke="none">
<path d="M2602 2657 c-16 -18 -52 -114 -45 -120 3 -3 -6 -41 -20 -84 -46 -143
-85 -277 -107 -368 -25 -101 -47 -161 -57 -152 -3 4 -12 -4 -19 -18 -13 -25
-8 -65 9 -76 5 -4 3 -39 -6 -90 -12 -69 -15 -76 -16 -41 -1 26 -5 41 -11 37
-5 -3 -10 -1 -10 6 0 76 -36 396 -48 434 -15 42 -23 52 -54 64 -32 12 -40 12
-55 0 -25 -21 -110 -208 -154 -338 -21 -64 -38 -111 -38 -106 -1 25 29 197 45
255 9 36 17 89 18 119 1 51 -1 54 -28 64 -61 20 -79 -39 -151 -493 -7 -49 16
-121 52 -161 19 -21 43 -41 54 -44 22 -7 52 12 43 26 -14 23 100 391 164 529
30 63 31 64 32 30 1 -23 4 -29 8 -18 4 9 8 -27 9 -80 2 -124 28 -303 49 -343
25 -50 157 -179 182 -179 27 0 27 0 1 50 -14 26 -21 58 -21 91 1 64 12 153 20
166 4 5 66 18 137 27 72 10 157 24 190 31 53 12 62 12 77 -2 18 -16 48 -12 48
7 0 18 -40 50 -68 56 -16 3 -68 -1 -118 -10 -49 -8 -125 -18 -169 -22 l-79 -7
84 93 c47 51 151 162 232 246 81 85 154 167 163 183 14 28 14 31 -7 51 -12 11
-27 20 -33 20 -12 0 -205 -214 -205 -227 0 -4 25 17 56 47 32 30 50 45 43 33
-20 -29 -239 -270 -280 -308 l-33 -30 29 38 c17 21 39 48 50 61 11 12 44 51
73 87 41 48 32 41 -37 -31 -50 -52 -91 -89 -91 -82 0 43 95 331 155 472 l36
85 -21 17 c-26 21 -63 23 -78 5z m-447 -454 c-2 -10 -10 -31 -19 -48 -9 -16
-16 -34 -15 -40 0 -5 13 15 29 45 16 30 29 51 29 45 0 -14 -78 -162 -79 -150
0 12 -20 -16 -20 -30 0 -5 5 -3 10 5 12 18 12 2 0 -25 -5 -11 -9 -15 -9 -8 -1
7 -8 10 -17 6 -14 -5 -14 -2 0 31 22 53 35 74 36 57 0 -12 3 -12 12 -3 10 10
10 15 0 21 -11 7 -8 19 12 60 27 53 37 64 31 34z m332 -120 c-16 -54 -29 -67
-16 -17 14 56 19 67 24 63 2 -3 -1 -23 -8 -46z m-240 -20 c-3 -10 -5 -2 -5 17
0 19 2 27 5 18 2 -10 2 -26 0 -35z m15 -173 c3 -76 2 -109 -3 -85 -8 39 -12
222 -5 214 2 -2 6 -60 8 -129z m-202 90 c0 -5 -5 -10 -11 -10 -5 0 -7 5 -4 10
3 6 8 10 11 10 2 0 4 -4 4 -10z m-154 -72 c-4 -40 -13 -113 -21 -163 l-14 -90
4 90 c4 90 24 235 32 235 3 0 2 -33 -1 -72z m524 38 c0 -3 -4 -8 -10 -11 -5
-3 -10 -1 -10 4 0 6 5 11 10 11 6 0 10 -2 10 -4z m-46 -41 c-4 -8 -8 -15 -10
-15 -2 0 -4 7 -4 15 0 8 4 15 10 15 5 0 7 -7 4 -15z m-467 -112 c-3 -10 -5 -4
-5 12 0 17 2 24 5 18 2 -7 2 -21 0 -30z m504 -9 c-5 -16 -10 -21 -10 -12 -1
18 10 51 15 45 2 -1 -1 -16 -5 -33z m-514 -81 c-2 -16 -4 -5 -4 22 0 28 2 40
4 28 2 -13 2 -35 0 -50z m500 -5 c-2 -13 -4 -5 -4 17 -1 22 1 32 4 23 2 -10 2
-28 0 -40z"/>
<path d="M3606 2320 c-24 -22 -59 -70 -77 -108 -19 -37 -37 -68 -41 -70 -5 -2
-8 -12 -8 -22 0 -10 -7 -26 -16 -34 -8 -9 -13 -16 -10 -16 4 0 -3 -19 -15 -42
-11 -22 -36 -84 -55 -137 -19 -53 -41 -110 -49 -127 -15 -32 -19 -56 -17 -85
2 -15 67 -58 76 -49 2 3 17 28 33 55 143 241 223 357 288 413 43 38 84 51 99
31 24 -31 70 -59 97 -59 35 0 40 26 7 35 -13 4 -45 22 -73 40 -51 34 -102 55
-92 38 4 -6 -3 -8 -17 -6 -12 3 -29 -2 -37 -9 -8 -8 -27 -23 -42 -33 -17 -11
-24 -21 -17 -25 6 -4 0 -16 -17 -31 l-28 -24 20 25 20 25 -22 -18 c-12 -11
-19 -24 -17 -31 3 -7 -3 -19 -12 -27 -15 -12 -17 -12 -9 0 6 10 4 12 -4 7 -7
-5 -10 -14 -7 -22 3 -7 0 -16 -6 -20 -7 -5 -8 -2 -3 6 5 8 4 11 -2 7 -6 -4
-32 -41 -58 -82 -25 -41 -48 -75 -50 -75 -2 0 1 15 7 33 5 17 12 41 15 52 3
11 10 25 14 31 5 6 10 20 12 32 2 12 27 58 56 104 30 46 60 93 68 106 8 13 32
41 54 63 43 43 47 56 22 75 -28 21 -40 17 -87 -26z m-135 -273 c-10 -9 -11 -8
-5 6 3 10 9 15 12 12 3 -3 0 -11 -7 -18z m-16 -34 c-4 -10 -22 -58 -41 -108
-18 -49 -33 -83 -33 -75 -1 24 66 200 77 200 2 0 1 -8 -3 -17z m-89 -249 c-8
-21 -15 -34 -15 -28 -1 15 20 76 25 71 2 -2 -2 -21 -10 -43z"/>
<path d="M3097 2284 c-25 -14 -103 -145 -91 -156 8 -8 -18 -68 -27 -62 -5 3
-6 -2 -3 -10 3 -8 -3 -44 -14 -78 -11 -35 -23 -93 -27 -130 l-7 -67 39 -41
c21 -22 56 -47 78 -54 37 -13 43 -12 85 9 53 27 89 64 155 158 66 94 94 168
95 243 0 51 -4 66 -30 101 -32 44 -76 70 -131 77 -19 2 -47 9 -62 15 -16 6
-29 11 -30 11 -1 -1 -14 -8 -30 -16z m182 -68 c15 -16 25 -43 30 -80 4 -31 5
-56 2 -56 -4 0 -13 -21 -20 -46 -28 -95 -166 -256 -242 -283 l-32 -11 5 78 c8
113 72 295 135 385 22 31 32 37 63 37 26 0 43 -7 59 -24z m75 -71 c7 -36 -8
-110 -27 -133 -8 -11 -12 -11 -18 0 -12 19 -11 30 3 22 8 -5 9 0 6 14 -4 14
-2 20 4 16 7 -5 9 5 4 28 -3 20 -2 47 3 60 7 18 6 30 -2 39 -10 11 -9 11 4 1
10 -7 20 -28 23 -47z m13 -97 c-3 -7 -5 -2 -5 12 0 14 2 19 5 13 2 -7 2 -19 0
-25z m-17 -57 c0 -12 -41 -63 -47 -57 -5 5 35 66 43 66 2 0 4 -4 4 -9z m-371
-70 c-6 -29 -13 -50 -15 -48 -3 2 1 28 7 56 6 29 13 50 15 48 3 -2 -1 -28 -7
-56z m-17 -98 c-3 -16 -7 -22 -10 -15 -4 13 4 42 11 42 2 0 2 -12 -1 -27z"/>
<path d="M4123 2201 c-67 -17 -210 -160 -305 -306 -75 -116 -86 -150 -63 -199
37 -78 83 -72 159 22 49 60 276 289 276 279 0 -2 -15 -37 -34 -78 -39 -87 -86
-219 -86 -246 0 -30 38 -83 60 -83 12 0 20 7 20 16 0 63 131 366 194 447 42
55 43 71 4 100 -23 17 -32 19 -52 9 -22 -10 -27 -8 -43 13 -20 28 -78 39 -130
26z m106 -74 c-1 -28 -17 -47 -125 -146 -68 -63 -121 -118 -118 -122 3 -5 -1
-7 -8 -4 -7 3 -35 -15 -61 -40 -26 -25 -50 -45 -52 -45 -19 0 160 233 227 297
51 48 122 101 131 96 4 -2 7 -19 6 -36z m-49 -116 c-24 -28 -47 -51 -52 -51
-14 0 -9 20 7 26 8 4 15 11 15 18 0 12 62 67 69 61 2 -2 -16 -27 -39 -54z
m-116 -96 c-4 -8 -11 -15 -16 -15 -6 0 -5 6 2 15 7 8 14 15 16 15 2 0 1 -7 -2
-15z"/>
<path d="M2411 2114 c0 -11 3 -14 6 -6 3 7 2 16 -1 19 -3 4 -6 -2 -5 -13z"/>
<path d="M2391 2044 c0 -11 3 -14 6 -6 3 7 2 16 -1 19 -3 4 -6 -2 -5 -13z"/>
<path d="M2371 1964 c0 -11 3 -14 6 -6 3 7 2 16 -1 19 -3 4 -6 -2 -5 -13z"/>
<path d="M2342 1795 c0 -16 2 -22 5 -12 2 9 2 23 0 30 -3 6 -5 -1 -5 -18z"/>
</g>
</svg>
